<svg width="46" height="56" viewBox="0 0 46 56" fill="none" xmlns="http://www.w3.org/2000/svg">
<path d="M23 30.5C27.1421 30.5 30.5 27.1421 30.5 23C30.5 18.8579 27.1421 15.5 23 15.5C18.8579 15.5 15.5 18.8579 15.5 23C15.5 27.1421 18.8579 30.5 23 30.5Z" stroke="#92929D" stroke-width="5" stroke-linecap="round" stroke-linejoin="round"/>
<path d="M23 3C17.6957 3 12.6086 5.10714 8.85786 8.85786C5.10714 12.6086 3 17.6957 3 23C3 27.73 4.005 30.825 6.75 34.25L23 53L39.25 34.25C41.995 30.825 43 27.73 43 23C43 17.6957 40.8929 12.6086 37.1421 8.85786C33.3914 5.10714 28.3043 3 23 3V3Z" stroke="#92929D" stroke-width="5" stroke-linecap="round" stroke-linejoin="round"/>
</svg>
