<svg width="50" height="50" viewBox="0 0 50 50" fill="none" xmlns="http://www.w3.org/2000/svg">
<path d="M26.8054 0.489175C26.2586 0.168851 25.6364 0 25.0027 0C24.369 0 23.7468 0.168851 23.2 0.489175L1.76772 13.0419C1.23119 13.3572 0.786517 13.8075 0.477906 14.3479C0.169296 14.8884 0.0074902 15.5001 0.00857191 16.1225C0.00965362 16.7448 0.173585 17.3561 0.484072 17.8954C0.79456 18.4348 1.24079 18.8835 1.77842 19.197L23.2072 31.6855C23.7522 32.0031 24.3718 32.1705 25.0027 32.1705C25.6336 32.1705 26.2532 32.0031 26.7982 31.6855L48.227 19.197C48.7651 18.8831 49.2116 18.4338 49.522 17.8937C49.8324 17.3536 49.996 16.7416 49.9963 16.1187C49.9967 15.4957 49.8339 14.8836 49.524 14.3431C49.2142 13.8027 48.7683 13.3528 48.2306 13.0383L26.8018 0.485609L26.8054 0.489175ZM23.2 4.62229C23.7464 4.30264 24.3679 4.13416 25.0009 4.13416C25.6339 4.13416 26.2555 4.30264 26.8018 4.62229L46.4297 16.1159L26.7982 27.5595C26.2532 27.8771 25.6336 28.0445 25.0027 28.0445C24.3718 28.0445 23.7522 27.8771 23.2072 27.5595L3.57218 16.1159L23.2 4.62229ZM0.291356 23.7866L23.25 36.7066C23.7835 37.0065 24.3853 37.164 24.9974 37.164C25.6094 37.164 26.2112 37.0065 26.7447 36.7066L49.7034 23.7866C50.0484 24.587 50.0884 25.4861 49.8157 26.3139C49.543 27.1418 48.9766 27.8412 48.2234 28.2799L26.7911 40.7684C26.2465 41.0853 25.6275 41.2523 24.9974 41.2523C24.3672 41.2523 23.7483 41.0853 23.2036 40.7684L1.77129 28.2799C1.0181 27.8412 0.451666 27.1418 0.178991 26.3139C-0.0936836 25.4861 -0.0537118 24.587 0.291356 23.7866ZM0.291356 32.5342L23.25 45.4507C23.7835 45.7506 24.3853 45.9081 24.9974 45.9081C25.6094 45.9081 26.2112 45.7506 26.7447 45.4507L49.7034 32.5342C50.0484 33.3346 50.0884 34.2337 49.8157 35.0616C49.543 35.8895 48.9766 36.5888 48.2234 37.0275L26.7911 49.516C26.2465 49.833 25.6275 50 24.9974 50C24.3672 50 23.7483 49.833 23.2036 49.516L1.77129 37.0275C1.0181 36.5888 0.451666 35.8895 0.178991 35.0616C-0.0936836 34.2337 -0.0537118 33.3346 0.291356 32.5342Z" fill="#92929D"/>
</svg>
