<svg width="46" height="50" viewBox="0 0 46 50" fill="none" xmlns="http://www.w3.org/2000/svg">
<path fill-rule="evenodd" clip-rule="evenodd" d="M22.4998 34.9996C12.8349 34.9996 4.99995 27.1647 4.99995 17.4998C4.99995 7.83493 12.8349 0 22.4998 0C32.1646 0 39.9996 7.83493 39.9996 17.4998C39.9996 27.1647 32.1646 34.9996 22.4998 34.9996ZM34.9996 16.2498C34.9996 10.5013 29.7487 4.99995 23.7498 4.99995C23.0594 4.99995 22.4998 5.55959 22.4998 6.24993C22.4998 6.94028 23.0594 7.49992 23.7498 7.49992C28.3413 7.49992 32.4997 11.8566 32.4997 16.2498C32.4997 16.9402 33.0593 17.4998 33.7496 17.4998C34.44 17.4998 34.9996 16.9402 34.9996 16.2498Z" fill="#92929D"/>
<path d="M44.8987 43.2575C45.2522 44.0823 44.6472 44.9998 43.7498 44.9998H36.7677L32.1338 49.6337C31.5305 50.237 30.5135 50.0719 30.1319 49.3088L24.2591 38.3617C30.294 37.8561 35.5669 34.6709 38.8842 29.9997L44.8987 43.2575Z" fill="#92929D"/>
<path d="M14.8692 49.3088C14.4877 50.0719 13.4706 50.237 12.8673 49.6337L8.23349 44.9998H1.25133C0.353948 44.9998 -0.251083 44.0823 0.102414 43.2575L6.25055 30.0011C9.56825 34.6719 14.8413 37.8567 20.8762 38.3618L14.8692 49.3088Z" fill="#92929D"/>
</svg>
