<svg width="50" height="48" viewBox="0 0 50 48" fill="none" xmlns="http://www.w3.org/2000/svg">
<path d="M39.996 17.4883C41.9214 17.4873 43.806 18.0422 45.4237 19.0864C47.0413 20.1305 48.323 21.6195 49.115 23.3745C49.9069 25.1294 50.1754 27.0756 49.888 28.9794C49.6007 30.8832 48.7699 32.6636 47.4953 34.1066V45.6055C47.4959 45.9264 47.4141 46.2422 47.2578 46.5225C47.1014 46.8028 46.8757 47.0383 46.6022 47.2064C46.3288 47.3745 46.0168 47.4696 45.696 47.4825C45.3753 47.4954 45.0567 47.4258 44.7706 47.2803L44.5456 47.1428L39.996 43.9631L35.4465 47.1428C35.1837 47.3263 34.8784 47.4393 34.5595 47.4712C34.2406 47.503 33.9189 47.4526 33.6251 47.3248C33.3312 47.1969 33.0751 46.9958 32.881 46.7408C32.687 46.4858 32.5616 46.1852 32.5168 45.8679L32.4993 45.6055V34.1016C31.2264 32.6586 30.397 30.8789 30.1104 28.9762C29.8239 27.0735 30.0925 25.1285 30.8839 23.3746C31.6754 21.6207 32.9561 20.1324 34.5723 19.0883C36.1886 18.0442 38.0718 17.4886 39.996 17.4883V17.4883ZM43.7457 36.7613C42.5543 37.2431 41.2811 37.4901 39.996 37.4888C38.711 37.4901 37.4377 37.2431 36.2464 36.7613V42.0083L38.9236 40.141C39.1977 39.9489 39.5182 39.8337 39.8518 39.8074C40.1855 39.781 40.5201 39.8444 40.8209 39.991L41.0709 40.141L43.7457 42.0083V36.7613V36.7613ZM43.1207 8.47054e-09C44.8713 -8.68395e-05 46.5559 0.667664 47.831 1.86705C49.1061 3.06643 49.8756 4.70709 49.9825 6.45436L49.995 6.87432L49.9975 19.988C48.9838 18.6384 47.7086 17.5068 46.2479 16.6608L46.2454 6.87432C46.2458 6.10075 45.9592 5.35455 45.4411 4.78011C44.9229 4.20567 44.2102 3.84384 43.4407 3.76463L43.1207 3.74963H6.87432C6.10075 3.74927 5.35455 4.03588 4.78011 4.55398C4.20567 5.07208 3.84384 5.78485 3.76463 6.55435L3.74963 6.87432V30.622C3.74963 32.2393 4.97951 33.5717 6.55435 33.7291L6.87432 33.7466L29.1771 33.7491L29.4846 34.2566L29.8195 34.7465L29.997 34.9815L29.9945 37.4963H6.87432C5.12337 37.4963 3.43839 36.8282 2.16323 35.6283C0.888063 34.4284 0.118829 32.7871 0.0124991 31.0394L8.47054e-09 30.622V6.87432C-8.68395e-05 5.12377 0.667664 3.43914 1.86705 2.16404C3.06643 0.888942 4.70709 0.119441 6.45436 0.0124991L6.87432 8.47054e-09H43.1207V8.47054e-09ZM39.996 21.2379C38.3383 21.2379 36.7484 21.8964 35.5762 23.0687C34.4039 24.2409 33.7454 25.8307 33.7454 27.4885C33.7454 29.1463 34.4039 30.7362 35.5762 31.9084C36.7484 33.0806 38.3383 33.7391 39.996 33.7391C41.6538 33.7391 43.2437 33.0806 44.4159 31.9084C45.5881 30.7362 46.2467 29.1463 46.2467 27.4885C46.2467 25.8307 45.5881 24.2409 44.4159 23.0687C43.2437 21.8964 41.6538 21.2379 39.996 21.2379ZM23.1227 23.7376C23.5977 23.7378 24.055 23.9182 24.4021 24.2425C24.7491 24.5668 24.9602 25.0108 24.9926 25.4847C25.025 25.9586 24.8762 26.4271 24.5765 26.7956C24.2767 27.1641 23.8483 27.405 23.3777 27.4698L23.1227 27.4873H11.8738C11.3988 27.4871 10.9416 27.3067 10.5945 26.9824C10.2474 26.6581 10.0363 26.2141 10.0039 25.7402C9.97156 25.2663 10.1203 24.7978 10.42 24.4293C10.7198 24.0608 11.1483 23.8199 11.6188 23.7551L11.8738 23.7376H23.1227ZM38.1212 9.98901C38.5962 9.98915 39.0535 10.1696 39.4006 10.4939C39.7477 10.8182 39.9587 11.2621 39.9911 11.736C40.0235 12.2099 39.8747 12.6785 39.575 13.047C39.2752 13.4154 38.8468 13.6564 38.3762 13.7211L38.1212 13.7386H11.8738C11.3988 13.7385 10.9416 13.558 10.5945 13.2338C10.2474 12.9095 10.0363 12.4655 10.0039 11.9916C9.97156 11.5177 10.1203 11.0492 10.42 10.6807C10.7198 10.3122 11.1483 10.0713 11.6188 10.0065L11.8738 9.98901H38.1212Z" fill="#92929D"/>
</svg>
