<svg width="50" height="50" viewBox="0 0 50 50" fill="none" xmlns="http://www.w3.org/2000/svg">
<path d="M25.0002 35.0002C30.5231 35.0002 35.0002 30.5231 35.0002 25.0002C35.0002 19.4774 30.5231 15.0002 25.0002 15.0002C19.4774 15.0002 15.0002 19.4774 15.0002 25.0002C15.0002 30.5231 19.4774 35.0002 25.0002 35.0002Z" fill="#92929D"/>
<path d="M27.5 5.1725V0H22.5V5.1725C18.1007 5.7342 14.0124 7.74043 10.8764 10.8764C7.74043 14.0124 5.7342 18.1007 5.1725 22.5H0V27.5H5.1725C5.73338 31.8996 7.73934 35.9884 10.8755 39.1245C14.0116 42.2607 18.1004 44.2666 22.5 44.8275V50H27.5V44.8275C31.8997 44.267 35.9887 42.2612 39.125 39.125C42.2612 35.9887 44.267 31.8997 44.8275 27.5H50V22.5H44.8275C44.2666 18.1004 42.2607 14.0116 39.1245 10.8755C35.9884 7.73934 31.8996 5.73338 27.5 5.1725ZM25 40C16.7275 40 10 33.2725 10 25C10 16.7275 16.7275 10 25 10C33.2725 10 40 16.7275 40 25C40 33.2725 33.2725 40 25 40Z" fill="#92929D"/>
</svg>
