<svg width="54" height="50" viewBox="0 0 54 50" fill="none" xmlns="http://www.w3.org/2000/svg">
<path d="M7.69259 3.84615V46.1538H30.7695V3.84615H7.69259ZM5.76951 0H32.6926C33.2026 0 33.6918 0.202609 34.0524 0.563256C34.4131 0.923903 34.6157 1.41305 34.6157 1.92308V48.0769C34.6157 48.587 34.4131 49.0761 34.0524 49.4367C33.6918 49.7974 33.2026 50 32.6926 50H5.76951C5.25948 50 4.77034 49.7974 4.40969 49.4367C4.04905 49.0761 3.84644 48.587 3.84644 48.0769V1.92308C3.84644 1.41305 4.04905 0.923903 4.40969 0.563256C4.77034 0.202609 5.25948 0 5.76951 0Z" fill="#92929D"/>
<path d="M11.5385 11.5383H26.9231V15.3845H11.5385V11.5383ZM11.5385 23.0768H26.9231V26.9229H11.5385V23.0768ZM11.5385 34.6153H26.9231V38.4614H11.5385V34.6153ZM34.6154 26.9229H42.3077V30.7691H34.6154V26.9229ZM34.6154 34.6153H42.3077V38.4614H34.6154V34.6153ZM0 46.1537H53.8461V49.9999H0V46.1537Z" fill="#92929D"/>
<path d="M34.6152 19.2309V46.154H46.1537V19.2309H34.6152ZM32.6921 15.3848H48.0767C48.5868 15.3848 49.0759 15.5874 49.4366 15.948C49.7972 16.3087 49.9998 16.7978 49.9998 17.3078V48.0771C49.9998 48.5871 49.7972 49.0762 49.4366 49.4369C49.0759 49.7975 48.5868 50.0001 48.0767 50.0001H32.6921C32.1821 50.0001 31.6929 49.7975 31.3323 49.4369C30.9717 49.0762 30.769 48.5871 30.769 48.0771V17.3078C30.769 16.7978 30.9717 16.3087 31.3323 15.948C31.6929 15.5874 32.1821 15.3848 32.6921 15.3848Z" fill="#92929D"/>
</svg>
