<svg width="50" height="48" viewBox="0 0 50 48" fill="none" xmlns="http://www.w3.org/2000/svg">
<path d="M0 0H38.1071C40.7309 0 42.8571 2.1381 42.8571 4.7381V42.881C42.8571 45.4976 40.7309 47.619 38.1071 47.619H0V0ZM9.52381 4.7619H4.7619V42.8571H9.52381V4.7619ZM14.2857 42.8571H38.0952V4.7619H14.2857V42.8571ZM19.0476 33.3333C19.0476 31.4389 19.8002 29.6221 21.1397 28.2826C22.4793 26.943 24.2961 26.1905 26.1905 26.1905C28.0849 26.1905 29.9017 26.943 31.2412 28.2826C32.5808 29.6221 33.3333 31.4389 33.3333 33.3333H19.0476ZM26.1905 23.8095C24.9275 23.8095 23.7163 23.3078 22.8233 22.4148C21.9303 21.5218 21.4286 20.3106 21.4286 19.0476C21.4286 17.7847 21.9303 16.5735 22.8233 15.6804C23.7163 14.7874 24.9275 14.2857 26.1905 14.2857C27.4534 14.2857 28.6646 14.7874 29.5577 15.6804C30.4507 16.5735 30.9524 17.7847 30.9524 19.0476C30.9524 20.3106 30.4507 21.5218 29.5577 22.4148C28.6646 23.3078 27.4534 23.8095 26.1905 23.8095ZM45.2381 9.52381H50V19.0476H45.2381V9.52381ZM45.2381 23.8095H50V33.3333H45.2381V23.8095Z" fill="#92929D"/>
</svg>
