<svg width="50" height="50" viewBox="0 0 50 50" fill="none" xmlns="http://www.w3.org/2000/svg">
<path d="M23.5293 47.0574C26.088 47.0574 28.5585 46.6457 30.8644 45.8928C29.7257 44.412 28.7642 42.8031 27.9997 41.0988C26.541 43.1605 24.9586 44.1163 23.5293 44.1163C21.597 44.1163 19.3912 42.3811 17.5824 38.5047C16.8939 36.9972 16.3446 35.43 15.9413 33.8225H26.4821C26.5174 32.8167 26.6557 31.8314 26.8851 30.8814H15.3119C14.9032 28.452 14.7005 25.9923 14.706 23.5287C14.706 20.9317 14.9207 18.4553 15.3119 16.176H31.7467C32.0996 18.2465 32.3114 20.4788 32.3467 22.817C33.2349 22.2111 34.2025 21.7141 35.2466 21.3464C35.1706 19.6145 34.9968 17.8883 34.726 16.176H42.764C43.3816 17.7907 43.8022 19.5024 43.9963 21.2817C45.0963 21.6553 46.1168 22.1699 47.0462 22.8023C46.9035 18.1819 45.4029 13.7058 42.7318 9.93305C40.0607 6.16027 36.3374 3.25789 32.0268 1.58829C27.7163 -0.0813127 23.0094 -0.444167 18.4938 0.545032C13.9783 1.53423 9.85413 3.83165 6.63634 7.15046C3.41854 10.4693 1.24964 14.6624 0.40044 19.2064C-0.448763 23.7503 0.0593524 28.4438 1.86135 32.7007C3.66334 36.9576 6.67937 40.5895 10.5329 43.1427C14.3864 45.696 18.9066 47.0575 23.5293 47.0574ZM23.5293 2.9411C25.4616 2.9411 27.6674 4.67634 29.4762 8.5527C30.1144 9.92324 30.6702 11.4997 31.1202 13.2349H15.9383C16.3883 11.4997 16.9442 9.92324 17.5853 8.5527C19.3882 4.67634 21.594 2.9411 23.5293 2.9411ZM14.9178 7.30862C14.0493 9.21095 13.3762 11.1966 12.909 13.2349H5.69451C8.17749 8.94348 12.1215 5.68851 16.8059 4.06459C16.0971 5.03515 15.4648 6.13512 14.9178 7.30862ZM12.3296 16.176C11.949 18.6083 11.7602 21.0668 11.7649 23.5287C11.7649 26.0875 11.962 28.5639 12.3325 30.8814H4.29455C3.3976 28.5339 2.93903 26.0418 2.94165 23.5287C2.94165 20.9406 3.42105 18.4583 4.29455 16.176H12.3325H12.3296ZM12.909 33.8225C13.4266 36.0078 14.106 38.0048 14.9178 39.7488C15.4648 40.9223 16.0971 42.0223 16.8059 42.9929C12.1215 41.3689 8.17749 38.114 5.69451 33.8225H12.9119H12.909ZM30.2526 4.06459C34.9372 5.68828 38.8813 8.94331 41.364 13.2349H34.1466C33.6793 11.1966 33.0063 9.21097 32.1378 7.30862C31.6142 6.16911 30.9818 5.08275 30.2497 4.06459H30.2526ZM49.9991 34.3578C49.9991 28.3786 45.6904 23.5317 39.7082 23.5317C33.729 23.5317 29.4115 28.3786 29.4115 34.3578C29.4115 38.84 32.2996 44.7399 38.9876 49.7574C39.4141 50.0809 40.0023 50.0809 40.4288 49.7574C47.1227 44.7399 49.9991 38.84 49.9991 34.3578ZM44.1169 33.8225C44.1169 34.9926 43.6521 36.1147 42.8248 36.942C41.9974 37.7694 40.8753 38.2342 39.7053 38.2342C38.5352 38.2342 37.4131 37.7694 36.5858 36.942C35.7584 36.1147 35.2936 34.9926 35.2936 33.8225C35.2936 32.6525 35.7584 31.5304 36.5858 30.703C37.4131 29.8757 38.5352 29.4109 39.7053 29.4109C40.8753 29.4109 41.9974 29.8757 42.8248 30.703C43.6521 31.5304 44.1169 32.6525 44.1169 33.8225Z" fill="#92929D"/>
</svg>
