<svg width="36" height="50" viewBox="0 0 36 50" fill="none" xmlns="http://www.w3.org/2000/svg">
<path d="M35.1786 13.0357L22.6786 0.535714C22.3214 0.178571 21.9643 0 21.4286 0H3.57143C1.60714 0 0 1.60714 0 3.57143V46.4286C0 48.3929 1.60714 50 3.57143 50H32.1429C34.1071 50 35.7143 48.3929 35.7143 46.4286V14.2857C35.7143 13.75 35.5357 13.3929 35.1786 13.0357ZM21.4286 4.28571L31.4286 14.2857H21.4286V4.28571ZM32.1429 46.4286H3.57143V3.57143H17.8571V14.2857C17.8571 16.25 19.4643 17.8571 21.4286 17.8571H32.1429V46.4286Z" fill="#92929D"/>
<path d="M7.14307 35.7143H28.5716V39.2857H7.14307V35.7143ZM7.14307 25H28.5716V28.5714H7.14307V25Z" fill="#92929D"/>
</svg>
