<svg width="40" height="50" viewBox="0 0 40 50" fill="none" xmlns="http://www.w3.org/2000/svg">
<path fill-rule="evenodd" clip-rule="evenodd" d="M10 0C4.47715 0 0 4.47715 0 10V40C0 45.5228 4.47715 50 10 50H30C35.5228 50 40 45.5228 40 40V16.8856C40 15.7397 39.6064 14.6285 38.885 13.7381L29.2554 1.85246C28.306 0.680682 26.8785 0 25.3704 0H10ZM29.0625 9.55707V13.5H32.257L29.0625 9.55707ZM10 5C7.23858 5 5 7.23858 5 10V40C5 42.7614 7.23858 45 10 45H30C32.7614 45 35 42.7614 35 40V18.5H29.0625C26.3011 18.5 24.0625 16.2614 24.0625 13.5V5H10ZM22.5 31.25L23.5 30.5C24.6046 29.6716 26.1716 29.8954 27 31C27.8284 32.1046 27.6046 33.6716 26.5 34.5L21.5202 38.2348C21.099 38.558 20.5719 38.75 20 38.75C19.4281 38.75 18.901 38.558 18.4798 38.2348L13.5 34.5C12.3954 33.6716 12.1716 32.1046 13 31C13.8284 29.8954 15.3954 29.6716 16.5 30.5L17.5 31.25V21.5285C17.5 20.1478 18.6193 19.0285 20 19.0285C21.3807 19.0285 22.5 20.1478 22.5 21.5285V31.25Z" fill="#92929D"/>
</svg>
