<svg width="56" height="56" viewBox="0 0 56 56" fill="none" xmlns="http://www.w3.org/2000/svg">
<path d="M39.6887 10.0819L45.9181 16.3085L39.6887 10.0819ZM43.6946 4.59657L26.8503 21.4409C25.98 22.31 25.3864 23.4173 25.1444 24.6232L23.5885 32.4116L31.3768 30.8527C32.5827 30.6115 33.6886 30.0204 34.5592 29.1498L51.4035 12.3055C51.9097 11.7993 52.3112 11.1984 52.5851 10.537C52.8591 9.87568 53.0001 9.16685 53.0001 8.45102C53.0001 7.73518 52.8591 7.02635 52.5851 6.365C52.3112 5.70365 51.9097 5.10274 51.4035 4.59657C50.8973 4.09039 50.2964 3.68887 49.6351 3.41493C48.9737 3.14099 48.2649 3 47.549 3C46.8332 3 46.1244 3.14099 45.463 3.41493C44.8017 3.68887 44.2008 4.09039 43.6946 4.59657V4.59657Z" stroke="#92929D" stroke-width="6" stroke-linecap="round" stroke-linejoin="round"/>
<path d="M47.1181 38.2937V47.1173C47.1181 48.6774 46.4983 50.1736 45.3952 51.2768C44.292 52.3799 42.7958 52.9997 41.2357 52.9997H8.88241C7.3223 52.9997 5.82609 52.3799 4.72292 51.2768C3.61975 50.1736 3 48.6774 3 47.1173V14.764C3 13.2039 3.61975 11.7077 4.72292 10.6045C5.82609 9.50134 7.3223 8.88159 8.88241 8.88159H17.706" stroke="#92929D" stroke-width="6" stroke-linecap="round" stroke-linejoin="round"/>
</svg>
