<svg width="50" height="39" viewBox="0 0 50 39" fill="none" xmlns="http://www.w3.org/2000/svg">
<path fill-rule="evenodd" clip-rule="evenodd" d="M6.81832 0H43.1817C46.9472 0 49.9998 3.05258 49.9998 6.81813V7.78957C50.0001 7.80941 50.0001 7.82924 49.9998 7.84907V31.8179C49.9998 35.5835 46.9472 38.6361 43.1817 38.6361H6.81832C3.05277 38.6361 0.000193238 35.5835 0.000193238 31.8179V7.84899C-6.42567e-05 7.82922 -6.45683e-05 7.80943 0.000193238 7.78964V6.81813C0.000193238 3.05258 3.05277 0 6.81832 0ZM4.54561 12.1864V31.8179C4.54561 33.0731 5.56314 34.0906 6.81832 34.0906H43.1817C44.4369 34.0906 45.4544 33.0731 45.4544 31.8179V12.1864L28.9099 23.7675C26.5623 25.4108 23.4377 25.4108 21.0901 23.7675L4.54561 12.1864ZM45.4477 6.64267L26.3033 20.0438C25.5208 20.5915 24.4792 20.5915 23.6967 20.0438L4.55228 6.64267C4.64186 5.46948 5.62218 4.54542 6.81832 4.54542H43.1817C44.3778 4.54542 45.3581 5.46948 45.4477 6.64267Z" fill="#92929D"/>
</svg>
