<svg width="63" height="50" viewBox="0 0 63 50" fill="none" xmlns="http://www.w3.org/2000/svg">
<path fill-rule="evenodd" clip-rule="evenodd" d="M0.343708 23.2422C6.10699 9.08807 17.9976 0 31.25 0C44.5024 0 56.393 9.08807 62.1563 23.2422C62.6146 24.3677 62.6146 25.6323 62.1563 26.7578C56.393 40.9119 44.5024 50 31.25 50C17.9976 50 6.10699 40.9119 0.343708 26.7578C-0.114569 25.6323 -0.114569 24.3677 0.343708 23.2422ZM31.25 44.2177C41.9345 44.2177 51.7305 36.8336 56.7185 25C51.7305 13.1664 41.9345 5.78231 31.25 5.78231C20.5655 5.78231 10.7695 13.1664 5.78153 25C10.7695 36.8336 20.5655 44.2177 31.25 44.2177ZM31.25 36.3946C25.0663 36.3946 20.0535 31.293 20.0535 25C20.0535 18.707 25.0663 13.6054 31.25 13.6054C37.4337 13.6054 42.4465 18.707 42.4465 25C42.4465 31.293 37.4337 36.3946 31.25 36.3946ZM31.25 30.6122C34.2957 30.6122 36.7647 28.0996 36.7647 25C36.7647 21.9004 34.2957 19.3878 31.25 19.3878C28.2043 19.3878 25.7353 21.9004 25.7353 25C25.7353 28.0996 28.2043 30.6122 31.25 30.6122Z" fill="#92929D"/>
</svg>
