<svg width="55" height="56" viewBox="0 0 55 56" fill="none" xmlns="http://www.w3.org/2000/svg">
<path d="M52.3859 48.0614V28.7367C52.3861 27.3922 52.1117 26.0619 51.5797 24.8271C51.0477 23.5924 50.2692 22.4793 49.2919 21.556L31.0858 4.34993C30.1688 3.48303 28.9548 3 27.693 3C26.4311 3 25.2171 3.48303 24.3001 4.34993L6.09403 21.556C5.11674 22.4793 4.33824 23.5924 3.80622 24.8271C3.2742 26.0619 2.99986 27.3922 3 28.7367V48.0614C3 49.3712 3.52031 50.6274 4.44648 51.5535C5.37265 52.4797 6.6288 53 7.93859 53H47.4473C48.7571 53 50.0133 52.4797 50.9394 51.5535C51.8656 50.6274 52.3859 49.3712 52.3859 48.0614Z" stroke="#92929D" stroke-width="5" stroke-linecap="round" stroke-linejoin="round"/>
</svg>
