<svg width="45" height="52" viewBox="0 0 45 52" fill="none" xmlns="http://www.w3.org/2000/svg">
<path d="M12.6667 24.3167H11V27.65H12.6667V24.3167ZM32.6667 27.65H34.3333V24.3167H32.6667V27.65ZM12.6667 32.6667H11V34.3333H12.6667V32.6667ZM32.6667 32.6667V34.3333H34.3333V32.6667H32.6667ZM12.6667 19.3333V17.6667H11V19.3333H12.6667ZM32.6667 19.3333H34.3333V17.6667H32.6667V19.3333ZM42.6667 12.6667H44.3333V11.9767L43.8467 11.4867L42.6667 12.6667ZM32.6667 2.66667L33.8467 1.48667L33.3567 1H32.6667V2.66667ZM12.6667 27.65H32.6667V24.3167H12.6667V27.65ZM12.6667 34.3333H32.6667V31H12.6667V34.3333ZM12.6667 21H32.6667V17.6667H12.6667V21ZM39.3333 47.6667H6V51H39.3333V47.6667ZM4.33333 46V6H1V46H4.33333ZM41 12.6667V46H44.3333V12.6667H41ZM6 4.33333H32.6667V1H6V4.33333ZM31.4867 3.84667L41.4867 13.8467L43.8467 11.4867L33.8467 1.48667L31.4867 3.84667ZM6 47.6667C5.55797 47.6667 5.13405 47.4911 4.82149 47.1785C4.50893 46.866 4.33333 46.442 4.33333 46H1C1 47.3261 1.52678 48.5979 2.46447 49.5355C3.40215 50.4732 4.67392 51 6 51V47.6667ZM39.3333 51C40.6594 51 41.9312 50.4732 42.8689 49.5355C43.8066 48.5979 44.3333 47.3261 44.3333 46H41C41 46.442 40.8244 46.866 40.5118 47.1785C40.1993 47.4911 39.7754 47.6667 39.3333 47.6667V51ZM4.33333 6C4.33333 5.55797 4.50893 5.13405 4.82149 4.82149C5.13405 4.50893 5.55797 4.33333 6 4.33333V1C4.67392 1 3.40215 1.52678 2.46447 2.46447C1.52678 3.40215 1 4.67392 1 6H4.33333ZM11 19.3333V32.6667H14.3333V19.3333H11ZM21 19.3333V32.6667H24.3333V19.3333H21ZM31 19.3333V32.6667H34.3333V19.3333H31ZM11 14.3333H21V11H11V14.3333ZM24.3333 41H34.3333V37.6667H24.3333V41Z" fill="#92929D" stroke="#92929D" stroke-width="0.5"/>
</svg>
