<svg width="38" height="50" viewBox="0 0 38 50" fill="none" xmlns="http://www.w3.org/2000/svg">
<path d="M20.6876 26.2023L21.8776 22.6288L23.0675 26.2023L23.0677 26.203C23.6097 27.8283 24.5227 29.3051 25.7345 30.5162C26.9463 31.7274 28.4235 32.6396 30.0491 33.1806L33.6199 34.3703L30.0457 35.5604L30.045 35.5607C28.4197 36.1026 26.9429 37.0156 25.7318 38.2274C24.5208 39.4391 23.6087 40.9161 23.0676 42.5415C23.0675 42.5417 23.0675 42.5419 23.0674 42.5421L21.8778 46.1128L20.6876 42.5386L20.6874 42.5382C20.1459 40.9133 19.2335 39.4368 18.0223 38.2257C16.8112 37.0146 15.3348 36.1021 13.7099 35.5606L13.7094 35.5604L10.1358 34.3705L13.7094 33.1805L13.7099 33.1804C15.3348 32.6388 16.8112 31.7264 18.0223 30.5153C19.2335 29.3042 20.1459 27.8277 20.6874 26.2028L20.6876 26.2023ZM22.706 48.6L22.7032 48.5918C22.7042 48.5945 22.7051 48.5973 22.706 48.6ZM7.64803 35.1989L7.65623 35.1961C7.6535 35.1971 7.65077 35.198 7.64803 35.1989ZM7.62928 10.7472C8.41178 9.96466 9.00889 9.01744 9.37753 7.97525C10.1256 10.087 11.7859 11.7473 13.8976 12.4953C12.8554 12.864 11.9082 13.4611 11.1257 14.2436C10.3432 15.0261 9.74614 15.9732 9.3775 17.0154C9.00885 15.9732 8.41175 15.0261 7.62928 14.2436C6.84681 13.4611 5.89963 12.864 4.85748 12.4954C5.89963 12.1267 6.84681 11.5296 7.62928 10.7472ZM10.1808 4.06201L10.1819 4.06513L9.37867 3.79763L9.3775 3.79724L9.37678 3.797L9.37564 3.79662L8.73385 3.58287L9.3775 3.796L9.37936 3.79662L10.1808 4.06201ZM29.7171 6.24664C30.3246 5.83988 30.8469 5.31806 31.2542 4.71098C31.6611 5.31754 32.1828 5.83899 32.7897 6.24559C32.4876 6.44807 32.205 6.68008 31.9461 6.9389C31.6872 7.19783 31.4551 7.48059 31.2526 7.78278C31.0501 7.48059 30.818 7.19783 30.559 6.9389C30.3007 6.68052 30.0185 6.44887 29.7171 6.24664Z" stroke="#92929D" stroke-width="4"/>
</svg>
