<svg width="43" height="50" viewBox="0 0 43 50" fill="none" xmlns="http://www.w3.org/2000/svg">
<path fill-rule="evenodd" clip-rule="evenodd" d="M28.5239 6.28796C28.1015 2.74611 25.0873 0 21.4317 0C17.7761 0 14.7619 2.74611 14.3395 6.28796C8.38072 8.98919 4.23591 14.9894 4.23591 21.9577V33.9045L0.258529 41.7843C-0.540812 43.3679 0.610144 45.2381 2.38406 45.2381H14.6953C15.6758 48.0124 18.3216 50 21.4317 50C24.5417 50 27.1875 48.0124 28.1681 45.2381H40.4793C42.2532 45.2381 43.4042 43.3679 42.6048 41.7843L38.6274 33.9045V21.9577C38.6274 14.9894 34.4826 8.9892 28.5239 6.28796ZM34.121 35.5442L36.6104 40.4762H6.25294L8.74239 35.5442C8.91032 35.2115 8.99781 34.844 8.99781 34.4713V21.9577C8.99781 15.0906 14.5646 9.52381 21.4317 9.52381C28.2987 9.52381 33.8655 15.0906 33.8655 21.9577V34.4713C33.8655 34.844 33.953 35.2115 34.121 35.5442Z" fill="#92929D"/>
</svg>
