<svg width="56" height="56" viewBox="0 0 56 56" fill="none" xmlns="http://www.w3.org/2000/svg">
<path d="M31.5363 44.465L44.465 31.535L31.5363 44.465ZM24.465 31.535L11.5363 44.465L24.465 31.535ZM31.5363 24.465L44.465 11.535L31.5363 24.465ZM11.5363 24.465L24.465 11.535L11.5363 24.465ZM13 8C13 9.32608 12.4732 10.5979 11.5355 11.5355C10.5979 12.4732 9.32608 13 8 13C6.67392 13 5.40215 12.4732 4.46447 11.5355C3.52678 10.5979 3 9.32608 3 8C3 6.67392 3.52678 5.40215 4.46447 4.46447C5.40215 3.52678 6.67392 3 8 3C9.32608 3 10.5979 3.52678 11.5355 4.46447C12.4732 5.40215 13 6.67392 13 8V8ZM33 8C33 9.32608 32.4732 10.5979 31.5355 11.5355C30.5979 12.4732 29.3261 13 28 13C26.6739 13 25.4021 12.4732 24.4645 11.5355C23.5268 10.5979 23 9.32608 23 8C23 6.67392 23.5268 5.40215 24.4645 4.46447C25.4021 3.52678 26.6739 3 28 3C29.3261 3 30.5979 3.52678 31.5355 4.46447C32.4732 5.40215 33 6.67392 33 8V8ZM53 8C53 9.32608 52.4732 10.5979 51.5355 11.5355C50.5979 12.4732 49.3261 13 48 13C46.6739 13 45.4021 12.4732 44.4645 11.5355C43.5268 10.5979 43 9.32608 43 8C43 6.67392 43.5268 5.40215 44.4645 4.46447C45.4021 3.52678 46.6739 3 48 3C49.3261 3 50.5979 3.52678 51.5355 4.46447C52.4732 5.40215 53 6.67392 53 8V8ZM53 28C53 29.3261 52.4732 30.5979 51.5355 31.5355C50.5979 32.4732 49.3261 33 48 33C46.6739 33 45.4021 32.4732 44.4645 31.5355C43.5268 30.5979 43 29.3261 43 28C43 26.6739 43.5268 25.4021 44.4645 24.4645C45.4021 23.5268 46.6739 23 48 23C49.3261 23 50.5979 23.5268 51.5355 24.4645C52.4732 25.4021 53 26.6739 53 28ZM53 48C53 49.3261 52.4732 50.5979 51.5355 51.5355C50.5979 52.4732 49.3261 53 48 53C46.6739 53 45.4021 52.4732 44.4645 51.5355C43.5268 50.5979 43 49.3261 43 48C43 46.6739 43.5268 45.4021 44.4645 44.4645C45.4021 43.5268 46.6739 43 48 43C49.3261 43 50.5979 43.5268 51.5355 44.4645C52.4732 45.4021 53 46.6739 53 48V48ZM33 48C33 49.3261 32.4732 50.5979 31.5355 51.5355C30.5979 52.4732 29.3261 53 28 53C26.6739 53 25.4021 52.4732 24.4645 51.5355C23.5268 50.5979 23 49.3261 23 48C23 46.6739 23.5268 45.4021 24.4645 44.4645C25.4021 43.5268 26.6739 43 28 43C29.3261 43 30.5979 43.5268 31.5355 44.4645C32.4732 45.4021 33 46.6739 33 48V48ZM13 48C13 49.3261 12.4732 50.5979 11.5355 51.5355C10.5979 52.4732 9.32608 53 8 53C6.67392 53 5.40215 52.4732 4.46447 51.5355C3.52678 50.5979 3 49.3261 3 48C3 46.6739 3.52678 45.4021 4.46447 44.4645C5.40215 43.5268 6.67392 43 8 43C9.32608 43 10.5979 43.5268 11.5355 44.4645C12.4732 45.4021 13 46.6739 13 48V48ZM13 28C13 29.3261 12.4732 30.5979 11.5355 31.5355C10.5979 32.4732 9.32608 33 8 33C6.67392 33 5.40215 32.4732 4.46447 31.5355C3.52678 30.5979 3 29.3261 3 28C3 26.6739 3.52678 25.4021 4.46447 24.4645C5.40215 23.5268 6.67392 23 8 23C9.32608 23 10.5979 23.5268 11.5355 24.4645C12.4732 25.4021 13 26.6739 13 28ZM33 28C33 29.3261 32.4732 30.5979 31.5355 31.5355C30.5979 32.4732 29.3261 33 28 33C26.6739 33 25.4021 32.4732 24.4645 31.5355C23.5268 30.5979 23 29.3261 23 28C23 26.6739 23.5268 25.4021 24.4645 24.4645C25.4021 23.5268 26.6739 23 28 23C29.3261 23 30.5979 23.5268 31.5355 24.4645C32.4732 25.4021 33 26.6739 33 28V28Z" stroke="#92929D" stroke-width="5" stroke-linecap="round" stroke-linejoin="round"/>
</svg>
