<svg width="50" height="50" viewBox="0 0 50 50" fill="none" xmlns="http://www.w3.org/2000/svg">
<path d="M0 10.4167C0 7.65399 1.09747 5.00447 3.05097 3.05097C5.00447 1.09747 7.65399 0 10.4167 0H39.5833C42.346 0 44.9955 1.09747 46.949 3.05097C48.9025 5.00447 50 7.65399 50 10.4167V39.5833C50 42.346 48.9025 44.9955 46.949 46.949C44.9955 48.9025 42.346 50 39.5833 50H10.4167C7.65399 50 5.00447 48.9025 3.05097 46.949C1.09747 44.9955 0 42.346 0 39.5833V10.4167ZM10.4167 4.16667C8.75906 4.16667 7.16935 4.82515 5.99725 5.99725C4.82515 7.16935 4.16667 8.75906 4.16667 10.4167V22.9167H22.9167V4.16667H10.4167ZM27.0833 4.16667V22.9167H45.8333V10.4167C45.8333 8.75906 45.1749 7.16935 44.0028 5.99725C42.8306 4.82515 41.2409 4.16667 39.5833 4.16667H27.0833ZM45.8333 27.0833H27.0833V45.8333H39.5833C41.2409 45.8333 42.8306 45.1749 44.0028 44.0028C45.1749 42.8306 45.8333 41.2409 45.8333 39.5833V27.0833ZM22.9167 45.8333V27.0833H4.16667V39.5833C4.16667 41.2409 4.82515 42.8306 5.99725 44.0028C7.16935 45.1749 8.75906 45.8333 10.4167 45.8333H22.9167Z" fill="#92929D"/>
</svg>
