<svg width="59" height="50" viewBox="0 0 59 50" fill="none" xmlns="http://www.w3.org/2000/svg">
<path d="M54.1667 0H4.16667C3.0616 0 2.00179 0.438987 1.22039 1.22039C0.438987 2.00179 0 3.0616 0 4.16667V45.8333C0 46.9384 0.438987 47.9982 1.22039 48.7796C2.00179 49.561 3.0616 50 4.16667 50H54.1667C55.2717 50 56.3315 49.561 57.1129 48.7796C57.8943 47.9982 58.3333 46.9384 58.3333 45.8333V4.16667C58.3333 3.0616 57.8943 2.00179 57.1129 1.22039C56.3315 0.438987 55.2717 0 54.1667 0ZM54.1667 4.16667V29.1667H4.16667V4.16667H54.1667ZM4.16667 45.8333V33.3333H54.1667V45.8333H4.16667Z" fill="#92929D"/>
</svg>
