<svg width="40" height="50" viewBox="0 0 40 50" fill="none" xmlns="http://www.w3.org/2000/svg">
<path fill-rule="evenodd" clip-rule="evenodd" d="M7.56399 17.3093V12.7354C7.56399 5.70937 13.203 0 20.1762 0C27.1495 0 32.7885 5.70937 32.7885 12.7354V17.3093H36.3583C38.3874 17.3093 40 18.974 40 20.9893V46.32C40 48.3353 38.3874 50 36.3583 50H3.64167C1.61259 50 0 48.3353 0 46.32V20.9893C0 18.974 1.61259 17.3093 3.64167 17.3093H7.56399ZM4.55696 21.8548V45.4545H35.443V21.8548H4.55696ZM28.2315 17.2393V12.7354C28.2315 8.20469 24.6174 4.54545 20.1762 4.54545C15.7351 4.54545 12.121 8.20469 12.121 12.7354V17.2393H28.2315Z" fill="#92929D"/>
</svg>
