<svg width="42" height="50" viewBox="0 0 42 50" fill="none" xmlns="http://www.w3.org/2000/svg">
<path fill-rule="evenodd" clip-rule="evenodd" d="M7.69231 13.3987C7.69231 5.9988 13.5757 0 20.8333 0C28.0909 0 33.9744 5.9988 33.9744 13.3987C33.9744 18.0451 31.6547 22.1392 28.1318 24.5426C36.0379 27.5581 41.6667 35.3311 41.6667 44.4444V50H0V44.4444C0 35.3311 5.62874 27.5581 13.5349 24.5426C10.012 22.1392 7.69231 18.0451 7.69231 13.3987ZM20.8333 20.915C24.9047 20.915 28.2051 17.5499 28.2051 13.3987C28.2051 9.24753 24.9047 5.88235 20.8333 5.88235C16.762 5.88235 13.4615 9.24753 13.4615 13.3987C13.4615 17.5499 16.762 20.915 20.8333 20.915ZM20.8333 29.085C12.6208 29.085 5.94314 35.7857 5.77257 44.1176H35.8941C35.7235 35.7857 29.0459 29.085 20.8333 29.085Z" fill="#92929D"/>
</svg>
