<svg width="52" height="52" viewBox="0 0 52 52" fill="none" xmlns="http://www.w3.org/2000/svg">
<path d="M25.9559 50.9998C24.7004 50.9915 23.4988 50.4884 22.6119 49.5997L2.40116 29.3796C1.504 28.4823 1 27.2654 1 25.9965C1 24.7277 1.504 23.5108 2.40116 22.6135L22.6119 2.40272C23.0563 1.95802 23.5839 1.60525 24.1646 1.36457C24.7454 1.12388 25.3679 1 25.9965 1C26.6252 1 27.2477 1.12388 27.8284 1.36457C28.4092 1.60525 28.9368 1.95802 29.3811 2.40272L49.5981 22.6166C50.0476 23.0651 50.4029 23.5988 50.6433 24.1865C50.8838 24.7741 51.0044 25.4038 50.9982 26.0387C50.9899 27.2942 50.4868 28.4958 49.5981 29.3827L29.378 49.5997C28.9299 50.0487 28.3967 50.4039 27.8096 50.6443C27.2225 50.8847 26.5934 51.0056 25.959 50.9998H25.9559ZM24.8683 4.65287L15.8896 13.6347L25.9965 23.7417L36.1035 13.6347L27.1247 4.65287C26.9767 4.50452 26.8008 4.38682 26.6072 4.30651C26.4136 4.2262 26.2061 4.18487 25.9965 4.18487C25.7869 4.18487 25.5794 4.2262 25.3858 4.30651C25.1922 4.38682 25.0164 4.50452 24.8683 4.65287ZM28.2529 25.9981L38.3599 36.105L47.3386 27.1263C47.9637 26.5012 47.9637 25.4918 47.3386 24.8699L38.3599 15.8911L28.2529 25.9981ZM25.9965 28.2545L15.8896 38.3614L24.8683 47.3402C25.4934 47.9652 26.5028 47.9652 27.1247 47.3402L36.1035 38.3614L25.9965 28.2545ZM23.7401 25.9981L13.6332 15.8911L4.65131 24.8699C4.35245 25.1693 4.1846 25.575 4.1846 25.9981C4.1846 26.4211 4.35245 26.8269 4.65131 27.1263L13.6332 36.105L23.7401 25.9981Z" fill="#92929D" stroke="#92929D" stroke-width="0.5"/>
</svg>
