<svg width="50" height="38" viewBox="0 0 50 38" fill="none" xmlns="http://www.w3.org/2000/svg">
<path d="M30.9161 0.00082364C29.925 0.0079665 28.9411 0.0561813 27.9018 0.334753C26.7696 0.642084 25.6953 1.13248 24.7214 1.78654C23.3536 0.982966 22.0286 0.322252 20.7589 0.166895C19.1821 -0.0277479 17.7179 0.0776097 16.0161 0.113324C13.9982 0.154395 12.6821 1.18475 10.5464 2.00975C8.4125 2.83118 5.66429 3.62761 1.78571 3.62761H0V20.8151L1.00536 21.3169L4.29643 22.9365L16.0161 35.9937L16.0714 36.049C17.4107 37.374 19.2179 37.7026 20.8143 37.6115C22.4125 37.5223 23.9125 37.0544 25.1107 36.3294C27.7482 34.7383 34.9321 29.7437 34.9321 29.7437L35.1 29.6312L35.2125 29.5205C36.0625 28.6758 36.4893 27.6455 36.775 26.5633L43.6375 23.1026L48.7714 21.374L50 20.9812V3.62761H48.2143C45.2126 3.64813 42.236 3.07903 39.4536 1.95261C37.3179 1.11868 36.0214 0.0990382 33.9821 0.056181C32.8929 0.0347525 31.9036 -0.00631922 30.9143 0.00082364H30.9161ZM30.9696 3.57225C31.7732 3.56511 32.7018 3.60797 33.8732 3.62761C34.0607 3.63475 35.7768 4.3669 38.1696 5.30261C40.1929 6.09725 43.0036 6.80261 46.4286 7.03118V18.4151L42.2982 19.8115H42.1875L42.075 19.8651L36.6643 22.6008C36.3771 21.7721 35.921 21.0121 35.325 20.3687L35.2125 20.2008L27.6232 10.883L26.5071 9.48654L25.1107 10.6026L20.3125 14.5098C18.7018 15.6258 17.3964 15.3044 16.0714 14.6776C15.6875 14.4955 15.7089 14.4401 15.4018 14.2312L23.55 7.47761L23.6607 7.36689C26.0804 4.96689 27.5679 4.13654 28.85 3.79547C29.4929 3.62047 30.1696 3.5794 30.9714 3.57225H30.9696ZM18.5286 3.62761C19.1244 3.60515 19.721 3.62365 20.3143 3.68297C20.7821 3.73832 21.3125 4.13654 21.7661 4.29725C21.5839 4.46511 21.4518 4.56154 21.2625 4.74368L21.1518 4.85618L11.3857 12.9455L9.87857 14.174L11.2179 15.5687C11.2179 15.5687 12.5089 16.9651 14.5107 17.9133C16.5125 18.8615 19.6036 19.399 22.3786 17.4669L22.4911 17.3544L25.95 14.5098L32.5357 22.6008L32.5911 22.7133L32.6464 22.7669C33.825 23.933 33.7982 25.7669 32.6464 26.9544C32.6321 26.9669 32.6607 26.9955 32.6464 27.008C32.6321 27.0169 32.3964 27.1562 32.3679 27.1776L30.0232 23.9955L27.1214 26.1169L29.4107 29.1848C28.4821 29.8133 28.0643 30.1419 27.0661 30.8044L24.6679 27.5669L21.7643 29.6883L24.0536 32.7562C23.85 32.8812 23.4321 33.1615 23.2714 33.2598C22.7071 33.6008 21.6179 33.9848 20.6482 34.0401C19.7357 34.0901 19.0375 33.8794 18.6964 33.5937L18.6411 33.5383L6.69821 20.3133L6.475 20.033L3.57143 18.583V7.03118C6.98214 6.80797 9.81429 6.13118 11.8304 5.35797C14.2161 4.44368 15.9196 3.69011 16.1268 3.68297L18.5268 3.62761H18.5286Z" fill="#92929D"/>
</svg>
