<svg width="50" height="50" viewBox="0 0 50 50" fill="none" xmlns="http://www.w3.org/2000/svg">
<path fill-rule="evenodd" clip-rule="evenodd" d="M6.57405 6.57404C-2.19135 15.3394 -2.19135 29.5509 6.57405 38.3163C15.3394 47.0817 29.551 47.0817 38.3163 38.3163C47.0817 29.5509 47.0817 15.3394 38.3163 6.57404C29.551 -2.19135 15.3394 -2.19135 6.57405 6.57404ZM10.0394 10.0394C16.8909 3.18781 27.9995 3.18781 34.851 10.0394C41.7026 16.8909 41.7026 27.9995 34.851 34.851C27.9995 41.7026 16.8909 41.7026 10.0394 34.851C3.18781 27.9995 3.18781 16.8909 10.0394 10.0394Z" fill="#92929D"/>
<path d="M49.2381 44.7984L39.1195 34.6798C36.8093 32.3696 33.344 35.8349 35.6542 38.1451L45.7728 48.2638C48.083 50.574 51.5483 47.1087 49.2381 44.7984Z" fill="#92929D"/>
</svg>
