<svg width="50" height="50" viewBox="0 0 50 50" fill="none" xmlns="http://www.w3.org/2000/svg">
<path d="M49.737 3.30256L27.0128 48.7571C26.6104 49.5857 25.9358 50 24.989 50C24.8706 50 24.6931 49.9763 24.4564 49.929C23.9356 49.8106 23.5154 49.5443 23.1959 49.13C22.8763 48.7157 22.7165 48.2481 22.7165 47.7273V27.2727H2.26481C1.74405 27.2727 1.27654 27.1129 0.862301 26.7933C0.448058 26.4737 0.181759 26.0535 0.0634045 25.5327C-0.0549505 25.0118 -0.00760854 24.5147 0.20543 24.0412C0.418469 23.5677 0.761699 23.2126 1.23512 22.9759L46.6834 0.24858C46.9912 0.0828599 47.3344 0 47.7131 0C48.3522 0 48.8848 0.224905 49.3109 0.674716C49.666 1.00616 49.8849 1.41454 49.9678 1.89986C50.0506 2.38518 49.9737 2.85275 49.737 3.30256Z" fill="#92929D"/>
</svg>
