<svg width="50" height="50" viewBox="0 0 50 50" fill="none" xmlns="http://www.w3.org/2000/svg">
<path fill-rule="evenodd" clip-rule="evenodd" d="M12.5 25H10C4.47715 25 0 29.4772 0 35V40C0 45.5228 4.47715 50 10 50H12.5C18.0228 50 22.5 45.5228 22.5 40V35C22.5 29.4772 18.0228 25 12.5 25ZM5 35C5 32.2386 7.23858 30 10 30H12.5C15.2614 30 17.5 32.2386 17.5 35V40C17.5 42.7614 15.2614 45 12.5 45H10C7.23858 45 5 42.7614 5 40V35Z" fill="#92929D"/>
<path fill-rule="evenodd" clip-rule="evenodd" d="M17.5 8.75C17.5 3.91751 13.5825 0 8.75 0C3.91751 0 0 3.91751 0 8.75V11.25C0 16.0825 3.91751 20 8.75 20C13.5825 20 17.5 16.0825 17.5 11.25V8.75ZM5 8.75C5 6.67893 6.67893 5 8.75 5C10.8211 5 12.5 6.67893 12.5 8.75V11.25C12.5 13.3211 10.8211 15 8.75 15C6.67893 15 5 13.3211 5 11.25V8.75Z" fill="#92929D"/>
<path fill-rule="evenodd" clip-rule="evenodd" d="M40 22.5H37.5C31.9772 22.5 27.5 26.9772 27.5 32.5V40C27.5 45.5228 31.9772 50 37.5 50H40C45.5228 50 50 45.5228 50 40V32.5C50 26.9772 45.5228 22.5 40 22.5ZM32.5 32.5C32.5 29.7386 34.7386 27.5 37.5 27.5H40C42.7614 27.5 45 29.7386 45 32.5V40C45 42.7614 42.7614 45 40 45H37.5C34.7386 45 32.5 42.7614 32.5 40V32.5Z" fill="#92929D"/>
<path fill-rule="evenodd" clip-rule="evenodd" d="M41.25 0H31.25C26.4175 0 22.5 3.91751 22.5 8.75C22.5 13.5825 26.4175 17.5 31.25 17.5H41.25C46.0825 17.5 50 13.5825 50 8.75C50 3.91751 46.0825 0 41.25 0ZM27.5 8.75C27.5 6.67893 29.1789 5 31.25 5H41.25C43.3211 5 45 6.67893 45 8.75C45 10.8211 43.3211 12.5 41.25 12.5H31.25C29.1789 12.5 27.5 10.8211 27.5 8.75Z" fill="#92929D"/>
</svg>
