<svg width="43" height="50" viewBox="0 0 43 50" fill="none" xmlns="http://www.w3.org/2000/svg">
<path d="M27.3083 22.1564C28.1405 21.0108 28.6397 19.6574 28.7507 18.2459C28.8617 16.8343 28.5802 15.4195 27.9374 14.158C27.2945 12.8964 26.3153 11.8372 25.108 11.0974C23.9007 10.3576 22.5124 9.96604 21.0964 9.96604C19.6805 9.96604 18.2922 10.3576 17.0849 11.0974C15.8776 11.8372 14.8984 12.8964 14.2555 14.158C13.6127 15.4195 13.3312 16.8343 13.4422 18.2459C13.5532 19.6574 14.0524 21.0108 14.8846 22.1564C13.829 22.8291 12.8892 23.6682 12.1017 24.6411C11.8961 24.9071 11.7449 25.2109 11.6568 25.5353C11.5686 25.8596 11.5452 26.1982 11.5879 26.5316C11.6306 26.865 11.7385 27.1867 11.9055 27.4784C12.0726 27.7701 12.2954 28.026 12.5613 28.2316C12.8273 28.4372 13.1311 28.5884 13.4555 28.6765C13.7798 28.7647 14.1184 28.7881 14.4518 28.7454C14.7852 28.7027 15.1069 28.5948 15.3986 28.4277C15.6903 28.2607 15.9462 28.0379 16.1518 27.7719C16.7586 27.0006 17.532 26.3764 18.4141 25.9462C19.2962 25.5159 20.2641 25.2906 21.2455 25.2872C22.227 25.2906 23.1949 25.5159 24.077 25.9462C24.9591 26.3764 25.7324 27.0006 26.3393 27.7719C26.5731 28.0602 26.8686 28.2924 27.204 28.4515C27.5394 28.6106 27.9062 28.6925 28.2774 28.6913C28.7432 28.6891 29.199 28.5561 29.5928 28.3074C29.9867 28.0586 30.3027 27.7042 30.5047 27.2845C30.7068 26.8648 30.7868 26.3967 30.7357 25.9338C30.6845 25.4708 30.5043 25.0315 30.2155 24.666C29.3925 23.6738 28.41 22.8256 27.3083 22.1564ZM21.1213 20.3425C20.5899 20.3422 20.0704 20.1855 19.6274 19.8921C19.1845 19.5986 18.8376 19.1814 18.63 18.6923C18.4224 18.2031 18.3633 17.6637 18.46 17.1413C18.5567 16.6188 18.8049 16.1363 19.1738 15.7538C19.5427 15.3714 20.016 15.1059 20.5346 14.9905C21.0533 14.875 21.5944 14.9147 22.0907 15.1045C22.587 15.2944 23.0165 15.626 23.3257 16.0581C23.6349 16.4902 23.8102 17.0038 23.8297 17.5348C23.843 17.8987 23.7829 18.2616 23.6528 18.6018C23.5226 18.9419 23.3253 19.2523 23.0724 19.5145C22.8196 19.7766 22.5165 19.985 22.1812 20.1273C21.846 20.2696 21.4855 20.3428 21.1213 20.3425ZM42.1423 19.1002C41.7934 15.4697 40.5104 11.9915 38.4181 9.00416C36.3258 6.01683 33.4956 3.62222 30.203 2.0535C26.9105 0.484787 23.2678 -0.20457 19.6297 0.0525597C15.9917 0.309689 12.4821 1.50454 9.44297 3.52077C6.83198 5.26666 4.64008 7.56916 3.02472 10.2629C1.40936 12.9566 0.41064 15.9746 0.100308 19.1002C-0.204118 22.2052 0.186464 25.3392 1.24372 28.2745C2.30097 31.2099 3.99838 33.8731 6.21279 36.071L19.382 49.265C19.613 49.4979 19.8878 49.6828 20.1906 49.8089C20.4934 49.9351 20.8181 50 21.1461 50C21.4742 50 21.7989 49.9351 22.1017 49.8089C22.4045 49.6828 22.6793 49.4979 22.9103 49.265L36.0298 36.071C38.2442 33.8731 39.9416 31.2099 40.9989 28.2745C42.0561 25.3392 42.4467 22.2052 42.1423 19.1002ZM32.5511 32.5675L21.1213 43.9973L9.69144 32.5675C8.00701 30.883 6.71671 28.8462 5.9133 26.6035C5.1099 24.3608 4.81334 21.968 5.04496 19.5971C5.27808 17.1896 6.04324 14.864 7.28514 12.7885C8.52703 10.7129 10.2146 8.93928 12.2259 7.59576C14.8621 5.84459 17.9565 4.91047 21.1213 4.91047C24.2861 4.91047 27.3805 5.84459 30.0167 7.59576C32.0219 8.93408 33.7057 10.6999 34.9473 12.7664C36.1889 14.8328 36.9574 17.1486 37.1976 19.5474C37.4368 21.9264 37.144 24.3288 36.3404 26.5806C35.5367 28.8325 34.2424 30.8775 32.5511 32.5675Z" fill="#92929D"/>
</svg>
